<?xml version="1.0" encoding="UTF-8" standalone="no"?>
<!-- Created with Inkscape (http://www.inkscape.org/) -->

<svg
   xmlns:dc="http://purl.org/dc/elements/1.1/"
   xmlns:cc="http://creativecommons.org/ns#"
   xmlns:rdf="http://www.w3.org/1999/02/22-rdf-syntax-ns#"
   xmlns:svg="http://www.w3.org/2000/svg"
   xmlns="http://www.w3.org/2000/svg"
   xmlns:sodipodi="http://sodipodi.sourceforge.net/DTD/sodipodi-0.dtd"
   xmlns:inkscape="http://www.inkscape.org/namespaces/inkscape"
   id="svg2"
   version="1.1"
   inkscape:version="0.91 r13725"
   xml:space="preserve"
   width="810"
   height="600"
   viewBox="0 0 810 600"
   sodipodi:docname="msocial_icon.svg"><metadata
     id="metadata8"><rdf:RDF><cc:Work
         rdf:about=""><dc:format>image/svg+xml</dc:format><dc:type
           rdf:resource="http://purl.org/dc/dcmitype/StillImage" /><dc:title></dc:title></cc:Work></rdf:RDF></metadata><defs
     id="defs6"><linearGradient
       x1="0"
       y1="0"
       x2="1"
       y2="0"
       gradientUnits="userSpaceOnUse"
       gradientTransform="matrix(-1.53e-5,274.85498,274.85498,1.53e-5,324.00049,102.57227)"
       spreadMethod="pad"
       id="linearGradient24"><stop
         style="stop-opacity:1;stop-color:#76d3f4"
         offset="0"
         id="stop26" /><stop
         style="stop-opacity:1;stop-color:#4ec3e7"
         offset="1"
         id="stop28" /></linearGradient><clipPath
       clipPathUnits="userSpaceOnUse"
       id="clipPath36"><path
         d="M 0,480 648,480 648,0 0,0 0,480 Z"
         id="path38"
         inkscape:connector-curvature="0" /></clipPath><linearGradient
       x1="0"
       y1="0"
       x2="1"
       y2="0"
       gradientUnits="userSpaceOnUse"
       gradientTransform="matrix(0,-169.98193,-169.98193,0,324,324.99023)"
       spreadMethod="pad"
       id="linearGradient60"><stop
         style="stop-opacity:1;stop-color:#d2f0f8"
         offset="0"
         id="stop62" /><stop
         style="stop-opacity:1;stop-color:#81d6ee"
         offset="1"
         id="stop64" /></linearGradient><clipPath
       clipPathUnits="userSpaceOnUse"
       id="clipPath72"><path
         d="M 0,480 648,480 648,0 0,0 0,480 Z"
         id="path74"
         inkscape:connector-curvature="0" /></clipPath><clipPath
       clipPathUnits="userSpaceOnUse"
       id="clipPath80"><path
         d="m 186.583,377.428 274.834,0 0,-112.616 -274.834,0 0,112.616 z"
         id="path82"
         inkscape:connector-curvature="0" /></clipPath><clipPath
       clipPathUnits="userSpaceOnUse"
       id="clipPath96"><path
         d="m 304.646,277.119 63.543,0 0,-7.1 -63.543,0 0,7.1 z"
         id="path98"
         inkscape:connector-curvature="0" /></clipPath><linearGradient
       x1="0"
       y1="0"
       x2="1"
       y2="0"
       gradientUnits="userSpaceOnUse"
       gradientTransform="matrix(63.543945,0,0,-63.543945,304.64551,273.56885)"
       spreadMethod="pad"
       id="linearGradient104"><stop
         style="stop-opacity:1;stop-color:#c2ebf6"
         offset="0"
         id="stop106" /><stop
         style="stop-opacity:1;stop-color:#c2ebf6"
         offset="0.100006"
         id="stop108" /><stop
         style="stop-opacity:1;stop-color:#daf3f7"
         offset="0.39478683"
         id="stop110" /><stop
         style="stop-opacity:1;stop-color:#daf3f7"
         offset="0.5"
         id="stop112" /><stop
         style="stop-opacity:1;stop-color:#daf3f7"
         offset="0.60521317"
         id="stop114" /><stop
         style="stop-opacity:1;stop-color:#c3ebf6"
         offset="0.899994"
         id="stop116" /><stop
         style="stop-opacity:1;stop-color:#c3ebf6"
         offset="1"
         id="stop118" /></linearGradient><linearGradient
       x1="0"
       y1="0"
       x2="1"
       y2="0"
       gradientUnits="userSpaceOnUse"
       gradientTransform="matrix(0,-37.262695,-37.262695,0,281.69873,320.35352)"
       spreadMethod="pad"
       id="linearGradient146"><stop
         style="stop-opacity:1;stop-color:#ebf7f8"
         offset="0"
         id="stop148" /><stop
         style="stop-opacity:1;stop-color:#cceef7"
         offset="0.74176"
         id="stop150" /><stop
         style="stop-opacity:1;stop-color:#c7edf6"
         offset="1"
         id="stop152" /></linearGradient><linearGradient
       x1="0"
       y1="0"
       x2="1"
       y2="0"
       gradientUnits="userSpaceOnUse"
       gradientTransform="matrix(0,-21.27832,-21.27832,0,281.69873,320.35352)"
       spreadMethod="pad"
       id="linearGradient168"><stop
         style="stop-opacity:1;stop-color:#f9f9f9"
         offset="0"
         id="stop170" /><stop
         style="stop-opacity:1;stop-color:#f9f9f9"
         offset="0.093399"
         id="stop172" /><stop
         style="stop-opacity:1;stop-color:#cceef7"
         offset="0.87664637"
         id="stop174" /><stop
         style="stop-opacity:1;stop-color:#cceef7"
         offset="1"
         id="stop176" /></linearGradient><clipPath
       clipPathUnits="userSpaceOnUse"
       id="clipPath184"><path
         d="M 0,480 648,480 648,0 0,0 0,480 Z"
         id="path186"
         inkscape:connector-curvature="0" /></clipPath></defs><sodipodi:namedview
     pagecolor="#ffffff"
     bordercolor="#666666"
     borderopacity="1"
     objecttolerance="10"
     gridtolerance="10"
     guidetolerance="10"
     inkscape:pageopacity="0"
     inkscape:pageshadow="2"
     inkscape:window-width="1680"
     inkscape:window-height="973"
     id="namedview4"
     showgrid="false"
     inkscape:zoom="0.39333333"
     inkscape:cx="405"
     inkscape:cy="300"
     inkscape:window-x="-9"
     inkscape:window-y="-9"
     inkscape:window-maximized="1"
     inkscape:current-layer="g10" /><g
     id="g10"
     inkscape:groupmode="layer"
     inkscape:label="Twitter_icon"
     transform="matrix(1.25,0,0,-1.25,0,600)"><g
       transform="matrix(5.3780364,0,0,-5.4411669,172.40602,348.30806)"
       style="display:inline"
       id="g5413"><path
         inkscape:connector-curvature="0"
         inkscape:export-ydpi="34.641003"
         inkscape:export-xdpi="34.641003"
         inkscape:export-filename="C:\Users\juacas\Pictures\edicion\WEB\QUESTOURnament_simple_podium.gif.png"
         id="path5016"
         style="fill:#afafde;fill-rule:evenodd;stroke:none"
         d="M 9.8406202,50.261211 21.105279,54.725861 51.602289,42.633424 39.767385,40.067839 Z" /><path
         inkscape:connector-curvature="0"
         inkscape:export-ydpi="34.641003"
         inkscape:export-xdpi="34.641003"
         inkscape:export-filename="C:\Users\juacas\Pictures\edicion\WEB\QUESTOURnament_simple_podium.gif.png"
         id="path5018"
         style="fill:#353564;fill-rule:evenodd;stroke:none"
         d="m 9.8406202,34.529015 0,15.732196 29.9267648,-10.193372 0,-12.785345 z" /><path
         inkscape:connector-curvature="0"
         inkscape:export-ydpi="34.641003"
         inkscape:export-xdpi="34.641003"
         inkscape:export-filename="C:\Users\juacas\Pictures\edicion\WEB\QUESTOURnament_simple_podium.gif.png"
         id="path5020"
         style="fill:#e9e9ff;fill-rule:evenodd;stroke:none"
         d="m 39.767385,27.282494 11.834904,1.333672 0,14.017258 -11.834904,-2.565585 z" /><path
         inkscape:connector-curvature="0"
         inkscape:export-ydpi="34.641003"
         inkscape:export-xdpi="34.641003"
         inkscape:export-filename="C:\Users\juacas\Pictures\edicion\WEB\QUESTOURnament_simple_podium.gif.png"
         id="path5036"
         style="fill:#e9e9ff;fill-rule:evenodd;stroke:none"
         d="m 30.899191,18.352779 13.639734,0.165213 0,12.076432 -13.639734,-1.393681 z" /><path
         inkscape:connector-curvature="0"
         inkscape:export-ydpi="34.641003"
         inkscape:export-xdpi="34.641003"
         inkscape:export-filename="C:\Users\juacas\Pictures\edicion\WEB\QUESTOURnament_simple_podium.gif.png"
         id="path5038"
         style="fill:#353564;fill-rule:evenodd;stroke:none"
         d="m 18.130379,20.699323 0,11.836055 12.768812,-3.334637 0,-10.847962 z" /><g
         transform="translate(-8.8388348,-53.033009)"
         inkscape:export-ydpi="34.641003"
         inkscape:export-xdpi="34.641003"
         inkscape:export-filename="C:\Users\juacas\Pictures\edicion\WEB\QUESTOURnament_simple_podium.gif.png"
         style="fill:#d98484;fill-opacity:1"
         id="g8552"><path
           inkscape:connector-curvature="0"
           d="M 18.679455,87.562024 29.944114,90.119051 60.441124,81.649175 48.60622,80.315503 Z"
           style="fill:#d98484;fill-opacity:1;fill-rule:evenodd;stroke:none"
           id="path5022"
           inkscape:export-filename="C:\Users\juacas\Pictures\edicion\WEB\QUESTOURnament_Big_podium.png"
           inkscape:export-xdpi="512.60999"
           inkscape:export-ydpi="512.60999" /><path
           inkscape:connector-curvature="0"
           d="M 26.969214,73.732332 40.41229,74.207426 53.37776,71.550997 39.738026,71.385785 Z"
           style="fill:#d98484;fill-opacity:1;fill-rule:evenodd;stroke:none"
           id="path5040"
           inkscape:export-filename="C:\Users\juacas\Pictures\edicion\WEB\QUESTOURnament_Big_podium.png"
           inkscape:export-xdpi="512.60999"
           inkscape:export-ydpi="512.60999" /></g><path
         inkscape:connector-curvature="0"
         inkscape:export-ydpi="34.641003"
         inkscape:export-xdpi="34.641003"
         inkscape:export-filename="C:\Users\juacas\Pictures\edicion\WEB\QUESTOURnament_simple_podium.gif.png"
         id="path5042"
         style="fill:#afafde;fill-rule:evenodd;stroke:none"
         d="M 18.130379,32.535378 31.573455,34.488173 44.538925,30.59442 30.899191,29.200741 Z" /><g
         transform="translate(-8.8388348,-53.033009)"
         inkscape:export-ydpi="34.641003"
         inkscape:export-xdpi="34.641003"
         inkscape:export-filename="C:\Users\juacas\Pictures\edicion\WEB\QUESTOURnament_simple_podium.gif.png"
         style="fill:#b22222;fill-opacity:1"
         id="g8544"><path
           inkscape:connector-curvature="0"
           d="m 29.944114,90.119051 0,17.639819 30.49701,-12.092437 0,-14.017258 z"
           style="fill:#b22222;fill-opacity:1;fill-rule:evenodd;stroke:none"
           id="path5024"
           inkscape:export-filename="C:\Users\juacas\Pictures\edicion\WEB\QUESTOURnament_Big_podium.png"
           inkscape:export-xdpi="512.60999"
           inkscape:export-ydpi="512.60999" /><path
           inkscape:connector-curvature="0"
           d="m 40.41229,74.207426 0,13.313756 12.96547,-3.893753 0,-12.076432 z"
           style="fill:#b22222;fill-opacity:1;fill-rule:evenodd;stroke:none"
           id="path5044"
           inkscape:export-filename="C:\Users\juacas\Pictures\edicion\WEB\QUESTOURnament_Big_podium.png"
           inkscape:export-xdpi="512.60999"
           inkscape:export-ydpi="512.60999" /></g><g
         transform="translate(-8.8388348,-53.033009)"
         inkscape:export-ydpi="34.641003"
         inkscape:export-xdpi="34.641003"
         inkscape:export-filename="C:\Users\juacas\Pictures\edicion\WEB\QUESTOURnament_simple_podium.gif.png"
         style="fill:#cd5c5c"
         id="g8548"><path
           inkscape:connector-curvature="0"
           d="m 18.679455,87.562024 11.264659,2.557027 0,17.639819 -11.264659,-4.46465 z"
           style="fill:#cd5c5c;fill-rule:evenodd;stroke:none"
           id="path5026"
           inkscape:export-filename="C:\Users\juacas\Pictures\edicion\WEB\QUESTOURnament_Big_podium.png"
           inkscape:export-xdpi="512.60999"
           inkscape:export-ydpi="512.60999" /><path
           inkscape:connector-curvature="0"
           d="m 26.969214,73.732332 13.443076,0.475094 0,13.313756 -13.443076,-1.952795 z"
           style="fill:#cd5c5c;fill-rule:evenodd;stroke:none"
           id="path5046"
           inkscape:export-filename="C:\Users\juacas\Pictures\edicion\WEB\QUESTOURnament_Big_podium.png"
           inkscape:export-xdpi="512.60999"
           inkscape:export-ydpi="512.60999" /></g><g
         inkscape:export-ydpi="34.641003"
         inkscape:export-xdpi="34.641003"
         inkscape:export-filename="C:\Users\juacas\Pictures\edicion\WEB\QUESTOURnament_simple_podium.gif.png"
         style="fill:#ffffff;fill-opacity:1"
         transform="matrix(1.3865543,0,0,1.3360104,-66.941475,-98.220752)"
         id="g5057"><path
           inkscape:connector-curvature="0"
           id="path3976"
           d="m 75.805753,97.094879 c 0,0 -0.737123,0.221544 -0.737123,0.221544 0,0 -0.03167,-4.358779 -0.03167,-4.358779 -0.181464,0.202243 -0.421148,0.419064 -0.720273,0.651183 -0.301588,0.234039 -0.574851,0.421946 -0.819163,0.562997 0,0 -0.0084,-0.683796 -0.0084,-0.683796 0.43858,-0.289091 0.817047,-0.601212 1.137402,-0.936912 0.317722,-0.33295 0.540646,-0.635431 0.670447,-0.90896 0,0 0.482074,-0.102842 0.482074,-0.102842 0,0 0.02675,5.555565 0.02675,5.555565"
           style="font-style:normal;font-weight:normal;font-size:8px;font-family:'Bitstream Vera Sans';fill:#ffffff;fill-opacity:1;stroke:none" /><path
           inkscape:connector-curvature="0"
           id="path3979"
           d="m 79.352559,103.58443 c 0,0 0.627201,-0.34617 0.627201,-0.34617 0.06791,0.30625 0.186037,0.4959 0.353707,0.56968 0.166552,0.0733 0.369166,0.057 0.60722,-0.0479 0.28006,-0.12338 0.515826,-0.32085 0.708552,-0.59221 0.191705,-0.26993 0.289373,-0.54302 0.293774,-0.82072 0.0042,-0.26536 -0.07962,-0.44829 -0.252353,-0.54898 -0.174003,-0.10141 -0.398938,-0.0963 -0.675811,0.0166 -0.11372,0.0464 -0.256197,0.12629 -0.427791,0.24011 0,0 0.0736,-0.54881 0.0736,-0.54881 0.04056,-0.012 0.07313,-0.0225 0.0979,-0.0325 0.257462,-0.10307 0.488134,-0.26053 0.692767,-0.47215 0.203393,-0.21032 0.306686,-0.45075 0.310791,-0.7226 0.0033,-0.21565 -0.06718,-0.366735 -0.21207,-0.453368 -0.145733,-0.08715 -0.33669,-0.08693 -0.573646,0.0016 -0.236629,0.08843 -0.436097,0.236248 -0.597493,0.443678 -0.162112,0.20833 -0.267923,0.46934 -0.316869,0.78223 0,0 -0.628935,0.13638 -0.628935,0.13638 0.08077,-0.43872 0.259488,-0.82224 0.534451,-1.14857 0.272884,-0.32386 0.607527,-0.557553 1.001484,-0.701489 0.268645,-0.09814 0.513052,-0.130916 0.733664,-0.09929 0.218765,0.0314 0.38377,0.122446 0.495946,0.272742 0.111575,0.149512 0.165295,0.331947 0.161608,0.547667 -0.0035,0.20466 -0.06108,0.41217 -0.172966,0.62318 -0.112199,0.21157 -0.277044,0.41046 -0.495414,0.59718 0.280529,-0.049 0.495133,-0.003 0.645187,0.13642 0.149052,0.13861 0.220514,0.35831 0.215139,0.65931 -0.0073,0.40601 -0.160648,0.81359 -0.462108,1.22616 -0.30403,0.41608 -0.689051,0.72957 -1.158761,0.94035 -0.430177,0.19302 -0.790954,0.23026 -1.080057,0.10851 -0.292454,-0.12317 -0.459509,-0.37877 -0.498746,-0.76694 0,0 2.9e-5,-1.9e-4 2.9e-5,-1.9e-4"
           style="font-style:normal;font-weight:normal;font-size:8px;font-family:'Bitstream Vera Sans';fill:#ffffff;fill-opacity:1;stroke:none" /><path
           inkscape:connector-curvature="0"
           id="path3982"
           d="m 70.099271,108.58263 c 0,0 0.01607,0.65091 0.01607,0.65091 0,0 -4.823285,2.17387 -4.823285,2.17387 -0.01402,-0.16971 0.01602,-0.35253 0.09102,-0.54856 0.12026,-0.32153 0.31876,-0.67269 0.594602,-1.05228 0.274197,-0.37733 0.670161,-0.84527 1.184387,-1.4004 0.785766,-0.84949 1.306681,-1.47402 1.57257,-1.88367 0.264381,-0.40731 0.392324,-0.7426 0.38497,-1.00792 -0.0078,-0.27885 -0.138386,-0.46679 -0.393551,-0.56401 -0.257303,-0.098 -0.591212,-0.0702 -1.003624,0.0854 -0.441092,0.16641 -0.794181,0.40606 -1.056377,0.71881 -0.263757,0.31464 -0.39098,0.6599 -0.380473,1.03368 0,0 -0.986469,0.30946 -0.986469,0.30946 0.04515,-0.59238 0.283967,-1.1221 0.713263,-1.58481 0.425053,-0.45814 0.997871,-0.819 1.710934,-1.08201 0.705786,-0.26034 1.258982,-0.30871 1.665796,-0.15055 0.401414,0.15607 0.605659,0.45679 0.616679,0.90271 0.0056,0.22631 -0.04563,0.471 -0.153709,0.73465 -0.108247,0.26412 -0.291985,0.5711 -0.552044,0.92207 -0.261611,0.35307 -0.70189,0.87407 -1.32661,1.56916 -0.529009,0.58603 -0.871696,0.97911 -1.023431,1.17416 -0.152271,0.19573 -0.277598,0.38072 -0.375771,0.55476 0,0 3.525061,-1.55538 3.525061,-1.55538"
           style="font-style:normal;font-weight:normal;font-size:8px;font-family:'Bitstream Vera Sans';fill:#ffffff;fill-opacity:1;stroke:none" /></g></g><g
       id="g5506"
       transform="matrix(0.59300722,0,0,0.59300722,53.560978,102.76301)"><g
         id="g12"><g
           id="g14"><g
             id="g20"><g
               id="g22"><path
                 inkscape:connector-curvature="0"
                 id="path30"
                 style="fill:url(#linearGradient24);stroke:none"
                 d="m 235.908,377.428 c -27.196,0 -49.335,-22.14 -49.335,-49.332 l 0,0 0,-176.193 c 0,-27.191 22.139,-49.331 49.335,-49.331 l 0,0 176.186,0 c 27.195,0 49.333,22.14 49.333,49.331 l 0,0 0,176.193 c 0,27.192 -22.138,49.332 -49.333,49.332 l 0,0 -176.186,0 z" /></g></g></g></g><g
         id="g32"><g
           clip-path="url(#clipPath36)"
           id="g34"><g
             transform="translate(192.8823,324.0498)"
             id="g40"><path
               inkscape:connector-curvature="0"
               id="path42"
               style="fill:#8fdaeb;fill-opacity:1;fill-rule:evenodd;stroke:none"
               d="m 0,0 0,-168.099 c 0,-25.948 21.122,-47.07 47.069,-47.07 l 168.097,0 c 25.948,0 47.069,21.122 47.069,47.07 l 0,168.099 c 0,25.945 -21.121,47.068 -47.069,47.068 l -168.097,0 C 21.122,47.068 0,25.945 0,0 m 9.237,-3.295 c 0,22.711 18.416,41.185 41.186,41.185 l 161.389,0 c 22.771,0 41.186,-18.474 41.186,-41.185 l 0,-161.448 c 0,-22.772 -18.415,-41.189 -41.186,-41.189 l -161.389,0 c -22.77,0 -41.186,18.417 -41.186,41.189 l 0,161.448 z" /></g><g
             transform="translate(242.3345,302.6299)"
             id="g44"><path
               inkscape:connector-curvature="0"
               id="path46"
               style="fill:#ffffff;fill-opacity:1;fill-rule:nonzero;stroke:none"
               d="m 0,0 c 0,22.064 17.887,40.012 40.009,40.012 22.064,0 40.01,-17.948 40.01,-40.012 l 0,-4.235 43.303,0 c 22.063,0 40.009,-17.946 40.009,-40.009 0,-20.827 -15.886,-38.302 -36.125,-40.304 l 0.059,-0.295 c 20.239,-2.06 36.066,-19.65 36.066,-40.419 0,-22.064 -17.946,-40.009 -40.009,-40.009 l -61.19,0 C 25.006,-165.271 0,-136.559 0,-99.729 L 0,0 Z" /></g></g></g><g
         id="g48"><g
           id="g50"><g
             id="g56"><g
               id="g58"><path
                 inkscape:connector-curvature="0"
                 id="path66"
                 style="fill:url(#linearGradient60);stroke:none"
                 d="m 260.014,302.629 0,-96.489 c 0,-0.354 0,-0.647 -0.057,-0.942 l 0,0 c 0,-28.477 15.944,-49.247 48.775,-50.13 l 0,0 c 0.53,0 1.059,-0.059 1.647,-0.059 l 0,0 55.306,0 c 12.299,0 22.359,10.063 22.359,22.359 l 0,0 c 0,12.356 -10.06,22.358 -22.359,22.358 l 0,0 -57.777,0 c -2.412,0 -3.177,1.47 -3.177,4.06 l 0,0 0,32.241 60.954,0 c 12.299,0 22.359,10.004 22.359,22.359 l 0,0 c 0,12.296 -10.06,22.357 -22.359,22.357 l 0,0 -60.954,0 0,21.886 c 0,12.3 -10.06,22.361 -22.358,22.361 l 0,0 c -12.356,0 -22.359,-10.061 -22.359,-22.361" /></g></g></g></g><g
         id="g68"><g
           clip-path="url(#clipPath72)"
           id="g70"><g
             id="g76"><g
               id="g78" /><g
               id="g84"><g
                 style="opacity:0.30000299"
                 id="g86"
                 clip-path="url(#clipPath80)"><g
                   id="g88"
                   transform="translate(186.5825,284.1689)"><path
                     inkscape:connector-curvature="0"
                     id="path90"
                     style="fill:#d4f1f8;fill-opacity:1;fill-rule:nonzero;stroke:none"
                     d="m 0,0 c 37.932,-12.116 85.962,-19.356 138.216,-19.356 51.505,0 98.933,7.037 136.618,18.851 l 0,45.524 c -0.396,24.228 -18.352,44.278 -41.672,47.922 -1.772,0.203 -3.571,0.318 -5.397,0.318 l -181.218,0 c -1.218,0 -2.422,-0.062 -3.617,-0.153 C 18.749,89.953 0,69.225 0,44.204 L 0,0 Z" /></g></g></g></g><g
             id="g92"><g
               id="g94" /><g
               id="g120"><g
                 style="opacity:0.80000299"
                 id="g122"
                 clip-path="url(#clipPath96)"><g
                   id="g124"><g
                     id="g126"><g
                       id="g128"><g
                         id="g130"><path
                           inkscape:connector-curvature="0"
                           id="path132"
                           style="fill:url(#linearGradient104);stroke:none"
                           d="m 368.189,270.019 -63.544,0 0,7.101 63.544,0 0,-7.101 z" /></g></g></g></g></g></g></g></g></g><g
         id="g134"><g
           id="g136"><g
             id="g142"><g
               id="g144"><path
                 inkscape:connector-curvature="0"
                 id="path154"
                 style="fill:url(#linearGradient146);stroke:none"
                 d="m 263.067,301.722 c 0,-10.29 8.341,-18.632 18.632,-18.632 l 0,0 c 10.291,0 18.631,8.342 18.631,18.632 l 0,0 c 0,10.291 -8.34,18.631 -18.631,18.631 l 0,0 c -10.291,0 -18.632,-8.34 -18.632,-18.631" /></g></g></g></g><g
         id="g156"><g
           id="g158"><g
             id="g164"><g
               id="g166"><path
                 inkscape:connector-curvature="0"
                 id="path178"
                 style="fill:url(#linearGradient168);stroke:none"
                 d="m 263.067,301.722 c 0,-0.901 0.086,-1.78 0.21,-2.647 l 0,0 c 1.288,9.033 9.033,15.984 18.422,15.984 l 0,0 c 9.389,0 17.133,-6.951 18.421,-15.984 l 0,0 c 0.125,0.867 0.21,1.746 0.21,2.647 l 0,0 c 0,10.291 -8.34,18.631 -18.631,18.631 l 0,0 c -10.291,0 -18.632,-8.34 -18.632,-18.631" /></g></g></g></g></g></g></svg>