<?xml version="1.0" encoding="UTF-8" standalone="no"?>
<svg
   xmlns:dc="http://purl.org/dc/elements/1.1/"
   xmlns:cc="http://creativecommons.org/ns#"
   xmlns:rdf="http://www.w3.org/1999/02/22-rdf-syntax-ns#"
   xmlns:svg="http://www.w3.org/2000/svg"
   xmlns="http://www.w3.org/2000/svg"
   xmlns:xlink="http://www.w3.org/1999/xlink"
   xmlns:sodipodi="http://sodipodi.sourceforge.net/DTD/sodipodi-0.dtd"
   xmlns:inkscape="http://www.inkscape.org/namespaces/inkscape"
   version="1.1"
   id="A"
   x="0px"
   y="0px"
   width="25.531204"
   height="19.50758"
   viewBox="0 0 25.531204 19.50758"
   enable-background="new 0 0 592 451"
   xml:space="preserve"
   sodipodi:docname="icon.svg"
   inkscape:version="0.92.1 r15371"><metadata
   id="metadata49"><rdf:RDF><cc:Work
       rdf:about=""><dc:format>image/svg+xml</dc:format><dc:type
         rdf:resource="http://purl.org/dc/dcmitype/StillImage" /><dc:title></dc:title></cc:Work></rdf:RDF></metadata><defs
   id="defs47"><radialGradient
     inkscape:collect="always"
     xlink:href="#SVGID_1_"
     id="radialGradient4526"
     gradientUnits="userSpaceOnUse"
     cx="6"
     cy="12"
     r="50.089901" /></defs><sodipodi:namedview
   pagecolor="#ffffff"
   bordercolor="#666666"
   borderopacity="1"
   objecttolerance="10"
   gridtolerance="10"
   guidetolerance="10"
   inkscape:pageopacity="0"
   inkscape:pageshadow="2"
   inkscape:window-width="1536"
   inkscape:window-height="801"
   id="namedview45"
   showgrid="false"
   fit-margin-top="0"
   fit-margin-left="0"
   fit-margin-right="0"
   fit-margin-bottom="0"
   inkscape:zoom="3.8783784"
   inkscape:cx="9.0044926"
   inkscape:cy="-18.259582"
   inkscape:window-x="-8"
   inkscape:window-y="-8"
   inkscape:window-maximized="1"
   inkscape:current-layer="A" />
<filter
   id="AI_GaussianBlur_7">
	<feGaussianBlur
   stdDeviation="7"
   id="feGaussianBlur2" />
</filter>
<symbol
   id="_x31_"
   viewBox="-62 -62 124 124"
   transform="translate(-19.206726,-12.191578)">
	<g
   id="g7"
   style="opacity:0.2;filter:url(#AI_GaussianBlur_7)">
		<path
   d="m -0.2,51.7 c -28.397,0 -51.5,-23.104 -51.5,-51.5 0,-28.396 23.103,-51.5 51.5,-51.5 28.397,0 51.5,23.104 51.5,51.5 0,28.396 -23.103,51.5 -51.5,51.5 z"
   id="path5"
   inkscape:connector-curvature="0"
   style="fill:#999999" />
	</g>
	
		<use
   xlink:href="#New_Symbol"
   width="79"
   height="79"
   x="-39.5"
   y="-39.5"
   transform="translate(18.006526,19.391778)"
   overflow="visible"
   id="use9"
   style="overflow:visible" />
</symbol>
<symbol
   id="New_Symbol"
   viewBox="-39.5 -39.5 79 79"
   transform="translate(-19.206726,-12.191578)">
	<radialGradient
   id="SVGID_1_"
   cx="6"
   cy="12"
   r="50.089901"
   gradientUnits="userSpaceOnUse">
		<stop
   offset="0"
   style="stop-color:#7FFF99"
   id="stop12" />
		<stop
   offset="1"
   style="stop-color:#02582F"
   id="stop14" />
	</radialGradient>
	<path
   stroke-miterlimit="10"
   d="M 36,0 C 36,-19.881 19.881,-36 0,-36 -19.881,-36 -36,-19.881 -36,0 -36,19.883 -19.881,36 0,36 19.881,36 36,19.883 36,0 Z"
   id="path17"
   inkscape:connector-curvature="0"
   style="fill:url(#radialGradient4526);stroke:#000000;stroke-width:7;stroke-miterlimit:10" />
</symbol>
<line
   stroke-miterlimit="10"
   x1="3.2190628"
   y1="9.7063389"
   x2="15.993885"
   y2="16.294176"
   id="line20"
   style="fill:none;stroke:#000000;stroke-width:0.32726508;stroke-miterlimit:10" />
<line
   stroke-miterlimit="10"
   x1="3.1268253"
   y1="2.9289711"
   x2="16.316719"
   y2="16.531193"
   id="line22"
   style="fill:none;stroke:#000000;stroke-width:0.32726508;stroke-miterlimit:10" />
<line
   stroke-miterlimit="10"
   x1="9.4911804"
   y1="2.7867877"
   x2="16.362835"
   y2="9.7537804"
   id="line24"
   style="fill:none;stroke:#000000;stroke-width:0.32726508;stroke-miterlimit:10" />
<line
   stroke-miterlimit="10"
   x1="16.0401"
   y1="9.5642014"
   x2="16.0401"
   y2="17.147324"
   id="line26"
   style="fill:none;stroke:#000000;stroke-width:0.32726508;stroke-miterlimit:10" />
<line
   stroke-miterlimit="10"
   x1="2.6195221"
   y1="2.5973041"
   x2="9.5372982"
   y2="2.5973041"
   id="line28"
   style="fill:none;stroke:#000000;stroke-width:0.32726508;stroke-miterlimit:10" />
<line
   stroke-miterlimit="10"
   x1="15.85553"
   y1="16.246923"
   x2="22.773308"
   y2="16.246923"
   id="line30"
   style="fill:none;stroke:#000000;stroke-width:0.32726508;stroke-miterlimit:10" />
<use
   xlink:href="#_x31_"
   width="124"
   height="124"
   x="-62"
   y="-62"
   transform="matrix(0.0461185,0,0,-0.04739451,10.29396,2.3606459)"
   overflow="visible"
   id="use32"
   style="overflow:visible" />
<use
   xlink:href="#_x31_"
   width="124"
   height="124"
   x="-62"
   y="-62"
   transform="matrix(0.0461185,0,0,-0.04739451,3.745132,2.3606459)"
   overflow="visible"
   id="use34"
   style="overflow:visible" />
<use
   xlink:href="#_x31_"
   width="124"
   height="124"
   x="-62"
   y="-62"
   transform="matrix(0.0461185,0,0,-0.04739451,3.745132,9.1855019)"
   overflow="visible"
   id="use36"
   style="overflow:visible" />
<use
   xlink:href="#_x31_"
   width="124"
   height="124"
   x="-62"
   y="-62"
   transform="matrix(0.0461185,0,0,-0.04739451,16.981143,9.1855019)"
   overflow="visible"
   id="use38"
   style="overflow:visible" />
<use
   xlink:href="#_x31_"
   width="124"
   height="124"
   x="-62"
   y="-62"
   transform="matrix(0.0461185,0,0,-0.04739451,16.981189,16.010221)"
   overflow="visible"
   id="use40"
   style="overflow:visible" />
<use
   xlink:href="#_x31_"
   width="124"
   height="124"
   x="-62"
   y="-62"
   transform="matrix(0.0461185,0,0,-0.04739451,23.576089,16.010264)"
   overflow="visible"
   id="use42"
   style="overflow:visible" />
</svg>